<?xml version="1.0" encoding="UTF-8"?>
<svg xmlns="http://www.w3.org/2000/svg" version="1.1" viewBox="0 0 720 185">
  <defs>
    <style>
      .navy { fill: #1a2a4a; }
      .gold { fill: #d8954c; }
      .navy-light { fill: #2a3d5c; }
    </style>
  </defs>
  <!-- Compass Rose - left side -->
  <g transform="translate(0, 0) scale(0.516)">
    <!-- Gold compass rings -->
    <g fill="#d8954c">
      <path d="M103.6,278.6l2.1-4.9c8.6,3.5,17.7,6.1,27.1,7.6l-.9-4c-8.6-1.5-16.9-3.9-24.8-7.1l5.5-13.1c5.2,2.1,10.6,3.8,16.1,5l-.9-4.2c-16.9-4.2-32.1-12.4-44.7-23.6l-3.2,2.4c8.6,7.8,18.5,14.2,29.3,18.9l-5.5,13.1c-13.1-5.8-25-13.7-35.3-23.4l-3.1,2.3c10.7,10.2,23.2,18.6,36.9,24.6l-2.1,4.9c-14.6-6.4-27.9-15.4-39.2-26.3l-3.1,2.3c20.5,20,47.2,33.6,77,37.6l-.8-3.9c-10.6-1.6-20.8-4.4-30.4-8.3Z"/>
      <path d="M277,204.9l-4.9-2.1c4.1-10.1,6.9-20.9,8.3-32.2l-3.9.8c-1.4,10.4-4.1,20.4-7.9,29.9l-13.1-5.5c2.7-6.8,4.8-13.9,6.1-21.3l-4,.8c-3.7,19-12.5,36.1-24.8,50l2.4,3.2c7.7-8.6,14.1-18.4,18.9-29.2l13.1,5.5c-5.7,13.1-13.7,25-23.3,35.2l2.3,3.1c10.2-10.7,18.5-23.1,24.5-36.8l4.9,2.1c-6.4,14.6-15.3,27.8-26.2,39.1l2.3,3.1c21-21.6,35-50.1,38.1-81.8l-3.9.8c-1.3,12.4-4.4,24.2-8.9,35.4Z"/>
      <path d="M64.9,55.6c10.7-9.6,23-17.4,36.4-23.2l2,5c-12.6,5.4-24.1,12.7-34.2,21.6l3,2.4c9.7-8.4,20.7-15.4,32.7-20.5l5.4,13.1c-9.8,4.2-18.8,9.8-26.9,16.5l3,2.4c13.1-10.7,28.8-18.4,46-21.9l1-4c-6.8,1.3-13.3,3.2-19.6,5.6l-5.4-13.1c9.1-3.6,18.7-6.1,28.7-7.4l1-3.9c-10.9,1.3-21.3,4-31.2,7.9l-2-5c10.9-4.3,22.5-7.2,34.6-8.5l1-3.9c-30,2.9-57.2,15.4-78.4,34.5l3,2.4Z"/>
      <path d="M29.9,105.3l4.9,2.1c-3.9,9.8-6.7,20.1-8.1,30.9l3.9-.9c1.4-9.9,4-19.5,7.7-28.5l13.1,5.5c-2.5,6.3-4.5,12.9-5.8,19.7l4-.9c3.5-16.4,10.8-31.5,20.9-44.1l-2.3-3.2c-6.2,7.6-11.3,16-15.3,25l-13.1-5.5c5-11.4,11.7-21.9,19.7-31.2l-2.3-3.1c-8.5,9.8-15.6,20.8-20.9,32.9l-4.9-2.1c5.7-12.9,13.3-24.8,22.6-35.2l-2.3-3.1c-18.8,20.8-31.2,47.4-34.4,76.8l3.9-.9c1.4-11.9,4.4-23.4,8.7-34.2Z"/>
      <path d="M203.2,31.5l-2.1,4.9c-11-4.4-22.7-7.4-35-8.6l.8,3.9c11.4,1.2,22.4,4.1,32.7,8.2l-5.5,13.1c-7.7-3.1-15.8-5.3-24.2-6.6l.8,4.1c18.1,3,34.7,10.6,48.6,21.6l3.2-2.4c-7.5-6.1-15.9-11.2-24.9-15.2l5.5-13.1c11.3,5,21.8,11.6,31.1,19.6l3.1-2.3c-9.7-8.5-20.7-15.5-32.7-20.8l2.1-4.9c12.9,5.6,24.6,13.2,35,22.4l3.1-2.3c-21.7-19.5-49.7-32.1-80.5-34.6l.8,3.8c13.4,1.2,26.2,4.3,38.2,9.2Z"/>
      <path d="M205.6,277.7l-2-5c11-4.7,21.3-11,30.5-18.5l-3-2.4c-8.7,7-18.4,12.9-28.9,17.4l-5.4-13.1c8.2-3.5,15.9-8,22.9-13.3l-3.1-2.5c-14.3,10.6-31.3,17.7-49.8,20l-1,4c9.6-1.1,18.9-3.4,27.6-6.8l5.4,13.1c-11.4,4.5-23.7,7.3-36.5,8.2l-.9,3.8c13.6-.8,26.7-3.8,38.9-8.6l2,5c-13.2,5.2-27.4,8.4-42.2,9.1l-.9,3.8c31.3-1.2,59.9-13,82.4-31.9l-3-2.4c-9.8,8.1-20.8,14.9-32.7,20Z"/>
      <path d="M173.9,230.8c7.1-1.9,13.9-4.8,20-8.6l-3.1-2.5c-5,2.9-10.3,5.2-15.9,6.9l-1,4.1Z"/>
      <path d="M227.2,181.6l-4.3.9c-2.4,6.1-5.6,11.8-9.5,17l2.3,3.1c4.8-6.3,8.7-13.4,11.5-21Z"/>
      <path d="M217.2,109.5l-2.4,3.1c3.6,5.2,6.5,10.8,8.7,16.8l4.4,1.1c-2.5-7.6-6.2-14.6-10.7-21Z"/>
      <path d="M121.1,226.6l-1-4.7c-3.9-2-7.6-4.3-11.1-6.9l-3.1,2.3c4.7,3.6,9.8,6.7,15.3,9.2Z"/>
      <path d="M124.4,82.2c-5.8,2.3-11.2,5.2-16.2,8.8l3,2.4c3.8-2.6,7.8-4.8,12-6.7l1.1-4.5Z"/>
      <path d="M176.9,80.2l.9,4.3c5.4,1.9,10.4,4.3,15.2,7.3l3.3-2.4c-5.9-3.9-12.4-7-19.3-9.2Z"/>
      <path d="M85.8,194.9l2.5-3.2c-1.9-3.4-3.6-7-4.9-10.7l-4.4-1.1c1.8,5.3,4.1,10.3,6.9,15Z"/>
      <path d="M80.4,126.3l4.4-1c1.5-3.4,3.3-6.7,5.2-9.8l-2.4-3.3c-2.9,4.4-5.3,9.1-7.3,14Z"/>
      <path d="M212.2,197.9c3.4-4.6,6.3-9.6,8.5-15l-4.6.9c-1.8,3.8-3.9,7.5-6.3,10.9l2.3,3.1Z"/>
      <path d="M110.5,213.9c2.9,2.1,5.9,4,9.1,5.7l-1.1-4.9c-1.7-1-3.3-2-4.9-3.1l-3.1,2.3Z"/>
      <path d="M85.6,181.5c1.2,3,2.5,5.8,4,8.6l2.6-3.3c-.7-1.4-1.4-2.8-2-4.2l-4.5-1.2Z"/>
      <path d="M191.3,93c-4.1-2.5-8.5-4.6-13.1-6.3l.9,4.3c3.1,1.2,6.1,2.7,8.9,4.4l3.3-2.4Z"/>
      <path d="M221.3,128.8c-2-5.2-4.6-10.2-7.7-14.8l-2.5,3.1c2.2,3.3,4.1,6.9,5.7,10.6l4.5,1.1Z"/>
      <path d="M91.3,117.2c-1.5,2.5-2.9,5-4.1,7.6l4.7-1c.6-1.1,1.2-2.2,1.8-3.3l-2.4-3.3Z"/>
      <path d="M122.7,89.1c-3.4,1.6-6.8,3.4-9.9,5.5l3.1,2.5c1.8-1.2,3.7-2.3,5.6-3.3l1.2-4.8Z"/>
      <path d="M175.4,224.6c4.8-1.5,9.5-3.6,13.8-6.1l-3.2-2.5c-3.1,1.6-6.3,3-9.6,4.2l-1.1,4.4Z"/>
      <path d="M254.4,111.8c-4.4-10.1-10.2-19.4-17.2-27.7l-2.4,3c11.9,14.2,20.1,31.6,23.2,50.7l4.1,1c-1.2-8.2-3.4-16.1-6.3-23.5l13.1-5.4c4,10.3,6.8,21.2,7.9,32.5l3.8.9c-1.1-12.2-4-23.9-8.3-34.9l5-2c4.7,12,7.8,24.9,8.8,38.3l3.8.9c-2.2-32-15.4-61-35.8-83.2l-2.4,3c10,11,18.2,23.6,24.1,37.5l-5,2c-5.6-13-13.2-24.9-22.5-35.3l-2.4,3c8.8,9.9,16.1,21.3,21.4,33.7l-13.1,5.4Z"/>
      <path d="M52.4,198.4c3.4,8,7.8,15.5,13,22.4l2.5-3.2c-9.7-13.2-16.4-28.7-19.1-45.6l-4.1-1c1.2,8.3,3.4,16.3,6.3,23.9l-13.1,5.4c-4.1-10.4-6.8-21.5-8-33l-3.9-1c1.1,12.4,3.9,24.3,8.3,35.4l-5,2c-4.8-12.2-7.8-25.2-8.8-38.9l-3.9-1c1.9,29.9,13.4,57.2,31.5,78.8l2.4-3c-8-9.8-14.7-20.7-19.7-32.4l5-2c4.7,10.9,10.8,21,18.2,30.1l2.4-3c-6.9-8.7-12.7-18.2-17.1-28.5l13.1-5.4Z"/>
    </g>
    <!-- Navy compass star -->
    <path class="navy" d="M306.8,157.5l-114.9-28.1,52.4-66.5-68.3,50.8L152.8,0l-28.5,113.7L58.6,60.3l49.9,67.6L0,151.8l107.6,27.5-52,66.1,66.6-49.7,24.6,114.4,27.6-113.2,69.1,55.1-52.9-70.6,116.3-24ZM285.3,157l-114.4-1.9,17.3-22.1,97.1,24ZM230.1,76.5l-80.8,77.7v-18.2l80.8-59.5ZM152.2,21l-2.2,112.1-22-16.9,24.2-95.1ZM16.5,152l111,2.2-16.6,22-94.4-24.2ZM70.1,231.2l79.1-76.2h-18.2l-58.5-79.7,76.7,79.7-.9,19.3-78.2,56.8ZM147.5,289.3l1.8-113.2,21.9,17-23.7,96.1ZM228,235.3l-77.7-80.2h17.6l60.1,80.2Z"/>
  </g>
  <!-- Text - right side, vertically centered -->
  <text x="195" y="72" class="navy" font-family="Georgia, 'Times New Roman', serif" font-size="52" font-weight="bold" letter-spacing="8">MERIDIAN</text>
  <text x="195" y="112" class="gold" font-family="Georgia, 'Times New Roman', serif" font-size="22" font-weight="600" letter-spacing="7">ANESTHESIA</text>
  <text x="195" y="145" class="navy-light" font-family="Georgia, 'Times New Roman', serif" font-size="11" font-weight="normal" font-style="italic" letter-spacing="2">A Division of National Partners in Healthcare</text>
</svg>
