<svg viewBox="0 0 310 310" xmlns="http://www.w3.org/2000/svg">
  <g fill="#C9A84C">
    <path d="M103.6,278.6l2.1-4.9c8.6,3.5,17.7,6.1,27.1,7.6l-.9-4c-8.6-1.5-16.9-3.9-24.8-7.1l5.5-13.1c5.2,2.1,10.6,3.8,16.1,5l-.9-4.2c-16.9-4.2-32.1-12.4-44.7-23.6l-3.2,2.4c8.6,7.8,18.5,14.2,29.3,18.9l-5.5,13.1c-13.1-5.8-25-13.7-35.3-23.4l-3.1,2.3c10.7,10.2,23.2,18.6,36.9,24.6l-2.1,4.9c-14.6-6.4-27.9-15.4-39.2-26.3l-3.1,2.3c20.5,20,47.2,33.6,77,37.6l-.8-3.9c-10.6-1.6-20.8-4.4-30.4-8.3Z"/>
    <path d="M277,204.9l-4.9-2.1c4.1-10.1,6.9-20.9,8.3-32.2l-3.9.8c-1.4,10.4-4.1,20.4-7.9,29.9l-13.1-5.5c2.7-6.8,4.8-13.9,6.1-21.3l-4,.8c-3.7,19-12.5,36.1-24.8,50l2.4,3.2c7.7-8.6,14.1-18.4,18.9-29.2l13.1,5.5c-5.7,13.1-13.7,25-23.3,35.2l2.3,3.1c10.2-10.7,18.5-23.1,24.5-36.8l4.9,2.1c-6.4,14.6-15.3,27.8-26.2,39.1l2.3,3.1c21-21.6,35-50.1,38.1-81.8l-3.9.8c-1.3,12.4-4.4,24.2-8.9,35.4Z"/>
    <path d="M64.9,55.6c10.7-9.6,23-17.4,36.4-23.2l2,5c-12.6,5.4-24.1,12.7-34.2,21.6l3,2.4c9.7-8.4,20.7-15.4,32.7-20.5l5.4,13.1c-9.8,4.2-18.8,9.8-26.9,16.5l3,2.4c13.1-10.7,28.8-18.4,46-21.9l1-4c-6.8,1.3-13.3,3.2-19.6,5.6l-5.4-13.1c9.1-3.6,18.7-6.1,28.7-7.4l1-3.9c-10.9,1.3-21.3,4-31.2,7.9l-2-5c10.9-4.3,22.5-7.2,34.6-8.5l1-3.9c-30,2.9-57.2,15.4-78.4,34.5l3,2.4Z"/>
    <path d="M29.9,105.3l4.9,2.1c-3.9,9.8-6.7,20.1-8.1,30.9l3.9-.9c1.4-9.9,4-19.5,7.7-28.5l13.1,5.5c-2.5,6.3-4.5,12.9-5.8,19.7l4-.9c3.5-16.4,10.8-31.5,20.9-44.1l-2.3-3.2c-6.2,7.6-11.3,16-15.3,25l-13.1-5.5c5-11.4,11.7-21.9,19.7-31.2l-2.3-3.1c-8.5,9.8-15.6,20.8-20.9,32.9l-4.9-2.1c5.7-12.9,13.3-24.8,22.6-35.2l-2.3-3.1c-18.8,20.8-31.2,47.4-34.4,76.8l3.9-.9c1.4-11.9,4.4-23.4,8.7-34.2Z"/>
    <path d="M203.2,31.5l-2.1,4.9c-11-4.4-22.7-7.4-35-8.6l.8,3.9c11.4,1.2,22.4,4.1,32.7,8.2l-5.5,13.1c-7.7-3.1-15.8-5.3-24.2-6.6l.8,4.1c18.1,3,34.7,10.6,48.6,21.6l3.2-2.4c-7.5-6.1-15.9-11.2-24.9-15.2l5.5-13.1c11.3,5,21.8,11.6,31.1,19.6l3.1-2.3c-9.7-8.5-20.7-15.5-32.7-20.8l2.1-4.9c12.9,5.6,24.6,13.2,35,22.4l3.1-2.3c-21.7-19.5-49.7-32.1-80.5-34.6l.8,3.8c13.4,1.2,26.2,4.3,38.2,9.2Z"/>
    <path d="M205.6,277.7l-2-5c11-4.7,21.3-11,30.5-18.5l-3-2.4c-8.7,7-18.4,12.9-28.9,17.4l-5.4-13.1c8.2-3.5,15.9-8,22.9-13.3l-3.1-2.5c-14.3,10.6-31.3,17.7-49.8,20l-1,4c9.6-1.1,18.9-3.4,27.6-6.8l5.4,13.1c-11.4,4.5-23.7,7.3-36.5,8.2l-.9,3.8c13.6-.8,26.7-3.8,38.9-8.6l2,5c-13.2,5.2-27.4,8.4-42.2,9.1l-.9,3.8c31.3-1.2,59.9-13,82.4-31.9l-3-2.4c-9.8,8.1-20.8,14.9-32.7,20Z"/>
    <path d="M173.9,230.8c7.1-1.9,13.9-4.8,20-8.6l-3.1-2.5c-5,2.9-10.3,5.2-15.9,6.9l-1,4.1Z"/>
    <path d="M135.2,79c-7.3,2-14.2,5-20.6,8.9l3.1,2.5c5.2-3.1,10.9-5.5,16.8-7.3l.7-4.1Z"/>
    <path d="M154.3,27.9l.1-4c-26.9.7-51.8,10.4-71.5,26.4l3,2.5c19-15.2,43.1-24.3,69.3-24.8l-.9-4.1Z"/>
    <path d="M154.4,282l.9,4.1c27-.7,51.9-10.5,71.7-26.5l-3-2.5c-19.1,15.2-43.2,24.3-69.5,24.8l-.1,4.1Z"/>
    <path d="M282,154.2l4,.1c-.6-26.9-10.4-51.8-26.4-71.5l-2.5,3c15.2,19,24.4,43.2,24.9,69.3l4-1Z"/>
    <path d="M27.9,154.4l-4.1.9c.7,27,10.5,51.9,26.5,71.7l2.5-3c-15.2-19.1-24.3-43.2-24.8-69.5l-4.1-.1Z"/>
    <path d="M155,0C69.4,0,0,69.4,0,155s69.4,155,155,155,155-69.4,155-155S240.6,0,155,0ZM155,297.4c-78.6,0-142.4-63.8-142.4-142.4S76.4,12.6,155,12.6s142.4,63.8,142.4,142.4-63.8,142.4-142.4,142.4Z"/>
    <polygon points="165.9 104.9 155 58.8 144.1 104.9 155 120.2 165.9 104.9"/>
    <polygon points="144.1 205.1 155 251.2 165.9 205.1 155 189.8 144.1 205.1"/>
    <polygon points="104.9 144.1 58.8 155 104.9 165.9 120.2 155 104.9 144.1"/>
    <polygon points="205.1 165.9 251.2 155 205.1 144.1 189.8 155 205.1 165.9"/>
    <circle cx="155" cy="155" r="20"/>
  </g>
</svg>
